# xmcd
#
# Track frame offsets: 
#        150
#        20477
#        38386
#        62118
#        79601
#        101086
#        129085
#
# Disc length: 2059 seconds
#
# Revision: 0
# Processed by: cddbd v1.5.2PL0 Copyright (c) Steve Scherf et al.
# Submitted via: ExactAudioCopy v0.99pb3
#
DISCID=49080907
DTITLE=Matini Schmerzverstärker - Matini 7700
DYEAR=2000
DGENRE=Punk
TTITLE0=Achterbahn
TTITLE1=Panzersong
TTITLE2=Malati
TTITLE3=Swimming Sands
TTITLE4=Weather report
TTITLE5=Das Ehrenfisch
TTITLE6=Irgendwann kauf ich mir
EXTD=
EXTT0=
EXTT1=
EXTT2=
EXTT3=
EXTT4=
EXTT5=
EXTT6=
PLAYORDER=
